<svg width="2.2rem" height="2.2rem" viewBox="0 0 103 104" fill="none" xmlns="http://www.w3.org/2000/svg"><path d="M51.8048 103.476C22.6861 103.476 0.0683969 79.234 0.946347 50.4653C1.53165 33.9425 9.97669 18.7132 25.299 8.65774C25.3617 8.65774 25.6962 8.53257 25.529 8.82464C24.3166 9.97205 2.26327 35.9036 22.5816 56.0563C32.9915 66.383 41.3948 56.5778 41.3948 56.5778C49.4427 46.126 41.2694 30.3125 41.2694 30.3125C39.179 25.1179 31.7164 21.9469 31.7164 21.9469L37.7367 15.3127C42.8371 17.5032 46.767 23.3863 46.767 23.3863C46.9342 17.2112 42.1891 10.5771 42.1891 10.5771L51.5121 0L60.7724 10.4519C56.4872 16.4601 56.1945 23.5115 56.1945 23.5115C59.0792 18.7132 65.2876 15.3127 65.2876 15.3127L71.2451 21.9469C65.5175 23.8036 61.7549 30.2708 61.7549 30.2708C58.4521 36.2165 56.09 48.9215 61.8803 56.8282C68.6531 66.1326 80.2127 56.244 80.2127 56.244C101.681 37.0718 78.0179 9.30447 78.0179 9.30447C76.7427 8.15705 78.1851 8.72033 78.1851 8.72033C88.6578 16.335 102.141 26.3279 102.475 51.4458C102.893 81.8209 81.5924 103.476 51.8048 103.476Z" fill="url(#paint0_linear)"></path><defs><linearGradient id="paint0_linear" x1="51.7014" y1="0" x2="51.7014" y2="103.476" gradientUnits="userSpaceOnUse"><stop stop-color="#FFC64A"></stop><stop offset="1" stop-color="#FAE1A4"></stop></linearGradient></defs></svg>