<svg width="2.3rem" height="2.3rem" viewBox="0 0 104 104" fill="none" xmlns="http://www.w3.org/2000/svg"><path d="M51.6959 103.476C23.2284 103.476 0.0693359 80.2667 0.0693359 51.7378C0.0693359 23.209 23.2284 0 51.6959 0C80.1634 0 103.322 23.209 103.322 51.7378C103.322 80.2667 80.1634 103.476 51.6959 103.476ZM51.6959 3.44849C25.127 3.44849 3.51041 25.1116 3.51041 51.7378C3.51041 78.3641 25.127 100.027 51.6959 100.027C78.2649 100.027 99.8814 78.3641 99.8814 51.7378C99.8814 25.1116 78.2649 3.44849 51.6959 3.44849V3.44849ZM57.4456 7.9985V13.1347C63.7479 14.0653 69.7236 16.5405 74.8425 20.3405L78.4626 16.7188C72.4777 12.1167 65.2854 9.02283 57.4456 7.9985ZM45.9191 8.01311C38.0836 9.04369 30.8975 12.1438 24.9188 16.7439L28.516 20.3655H28.5326C33.5433 16.6437 39.4721 14.0944 45.9191 13.1326V8.01311V8.01311ZM48.4693 18.4796V35.768C46.3792 36.1915 44.4266 37.0072 42.7091 38.1504L30.5061 25.9273L25.9409 30.5024L38.1543 42.7421C37.0156 44.4591 36.1871 46.4118 35.7666 48.5042H18.5092V54.9715H35.7666C36.1871 57.0618 37.0177 58.9999 38.1543 60.7169L25.9409 72.9608L30.5061 77.5358L42.7091 65.3065C44.4566 66.4702 46.4128 67.2828 48.4693 67.6994V84.994H54.9226V67.6994C57.0147 67.2759 58.9549 66.4351 60.6723 65.2898L72.8857 77.5337L77.4509 72.9587L65.2375 60.7148C66.3741 58.9978 67.2089 57.0597 67.6315 54.9694H84.8826V48.5021H67.6315C67.2109 46.4118 66.3762 44.4591 65.2375 42.74L77.4509 30.5003L72.8857 25.9252L60.6723 38.165C58.9549 37.0197 57.0147 36.1894 54.9226 35.7659V18.4796H48.4693V18.4796ZM86.6146 24.8884L83.0008 28.5101C86.8024 33.6451 89.2814 39.6406 90.2181 45.9653H95.3433C94.3128 38.1024 91.2152 30.8842 86.6146 24.8884ZM16.7626 24.9155C12.1704 30.9071 9.07901 38.1128 8.05064 45.9674H13.1821C14.1397 39.5085 16.671 33.5649 20.3827 28.5434L16.7626 24.9155V24.9155ZM8.05064 57.5104C9.07484 65.3628 12.162 72.5686 16.7522 78.5602L20.3661 74.9322C16.6585 69.9108 14.1376 63.9651 13.1821 57.5083H8.05064V57.5104ZM90.216 57.5104C89.2563 63.9755 86.7187 69.9233 82.9987 74.951L86.6126 78.5727C91.209 72.5769 94.3107 65.3691 95.3412 57.5104H90.216ZM28.5181 83.1102L24.9042 86.7318C30.885 91.3402 38.0815 94.4466 45.9212 95.4793V90.3389C39.47 89.3729 33.5288 86.8361 28.5181 83.1102V83.1102ZM74.8425 83.1206C69.8277 86.8424 63.8969 89.3959 57.4456 90.3535V95.4793C65.2874 94.4529 72.4777 91.3507 78.4626 86.7485L74.8592 83.1206H74.8425Z" fill="url(#paint0_linear)"></path><defs><linearGradient id="paint0_linear" x1="130.026" y1="34.8257" x2="51.6959" y2="103.476" gradientUnits="userSpaceOnUse"><stop stop-color="#FFEDAC"></stop><stop offset="1" stop-color="#F8C169"></stop></linearGradient></defs></svg>