<svg width="2.3rem" height="2.3rem" viewBox="0 0 105 104" fill="none" xmlns="http://www.w3.org/2000/svg"><path d="M51.3415 94.5832V98.3943C43.3345 98.1633 35.9241 96.0557 29.1104 92.0714C22.2967 88.0871 16.8496 82.7844 12.7691 76.1632L16.1182 74.1999C17.2346 76.0862 18.6397 77.9917 20.3335 79.9165L24.0868 76.6251C29.7841 83.0924 36.8672 87.1729 45.3362 88.8667L44.3546 93.8326C46.8568 94.2945 49.1858 94.5447 51.3415 94.5832ZM16.8111 63.9794L12.0184 65.5962C12.8653 67.9059 13.8085 70.0617 14.8479 72.0634L11.5565 73.9689C7.78395 67.0398 5.89768 59.6294 5.89768 51.7378C5.89768 43.8463 7.78395 36.4359 11.5565 29.5067L14.8479 31.4123C13.693 33.568 12.7499 35.7237 12.0184 37.8795L16.7534 39.4963C15.406 43.3458 14.7324 47.4264 14.7324 51.7378C14.7324 55.9338 15.4253 60.0144 16.8111 63.9794ZM89.1055 74.1999L92.4546 76.1632C88.3741 82.7844 82.927 88.0871 76.1133 92.0714C69.2996 96.0557 61.8893 98.1633 53.8822 98.3943V94.5832C56.038 94.5447 58.3669 94.2945 60.8691 93.8326L59.8875 88.8667C68.3565 87.1729 75.4396 83.0924 81.137 76.6251L84.8903 79.9165C86.5841 77.9917 87.9892 76.0862 89.1055 74.1999ZM80.3863 42.2102L66.9322 46.8297C67.4711 48.4465 67.7406 50.0825 67.7406 51.7378C67.7406 53.3931 67.4711 55.0292 66.9322 56.646L80.3286 61.2655C79.1352 64.807 77.2489 68.0599 74.6697 71.024L63.9873 61.6697C61.793 64.2489 58.9636 65.8849 55.499 66.5778L58.2707 80.4939C56.2689 80.8789 54.3827 81.0713 52.6119 81.0713C50.8411 81.0713 48.9548 80.8789 46.953 80.4939L49.7247 66.5778C46.2601 65.8849 43.4307 64.2489 41.2365 61.6697L30.554 71.024C27.9748 68.0599 26.0885 64.807 24.8952 61.2655L38.2916 56.646C37.7526 55.0292 37.4832 53.3931 37.4832 51.7378C37.4832 50.0825 37.7526 48.4465 38.2916 46.8297L24.8374 42.2102C26.1078 38.6302 28.0133 35.3773 30.554 32.4516L41.2365 41.806C43.5077 39.1883 46.3371 37.533 49.7247 36.8401L46.953 22.9818C48.6468 22.5968 50.5331 22.4043 52.6119 22.4043C54.6906 22.4043 56.5769 22.5968 58.2707 22.9818L55.499 36.8401C58.8866 37.533 61.716 39.1883 63.9873 41.806L74.6697 32.4516C77.2104 35.3773 79.116 38.6302 80.3863 42.2102ZM51.3415 5.08139V8.89244C48.8393 8.96943 46.5103 9.21965 44.3546 9.6431L45.3362 14.609C36.8672 16.2258 29.7841 20.2871 24.0868 26.7928L20.3335 23.5592C18.8706 25.176 17.4655 27.0623 16.1182 29.218L12.8269 27.3125C16.9074 20.6913 22.3352 15.3885 29.1104 11.4043C35.8856 7.41999 43.296 5.31237 51.3415 5.08139ZM99.3261 51.7378C99.3261 59.6294 97.4398 67.0398 93.6672 73.9689L90.3759 72.0634C91.4152 70.0617 92.3584 67.9059 93.2053 65.5962L88.4126 63.9794C89.7984 60.0144 90.4914 55.9338 90.4914 51.7378C90.4914 47.4264 89.8177 43.3458 88.4703 39.4963L93.2053 37.8795C92.4739 35.7237 91.5307 33.568 90.3759 31.4123L93.6672 29.5067C97.4398 36.4359 99.3261 43.8463 99.3261 51.7378ZM92.3969 27.3125L89.1055 29.218C87.7582 27.0623 86.3531 25.176 84.8903 23.5592L81.137 26.7928C75.4396 20.2871 68.3565 16.2258 59.8875 14.609L60.8691 9.6431C58.7134 9.21965 56.3844 8.96943 53.8822 8.89244V5.08139C61.9278 5.31237 69.3381 7.41999 76.1133 11.4043C82.8885 15.3885 88.3164 20.6913 92.3969 27.3125ZM101.809 51.7378C101.809 45.0781 100.51 38.7071 97.9113 32.6249C95.3129 26.5426 91.8194 21.3072 87.431 16.9187C83.0425 12.5303 77.8071 9.0368 71.7248 6.43836C65.6426 3.83992 59.2716 2.5407 52.6119 2.5407C45.9522 2.5407 39.5812 3.83992 33.4989 6.43836C27.4166 9.0368 22.1812 12.5303 17.7928 16.9187C13.4043 21.3072 9.91082 26.5426 7.31238 32.6249C4.71394 38.7071 3.41472 45.0781 3.41472 51.7378C3.41472 58.3975 4.71394 64.7685 7.31238 70.8508C9.91082 76.9331 13.4043 82.1685 17.7928 86.5569C22.1812 90.9454 27.4166 94.4389 33.4989 97.0373C39.5812 99.6358 45.9522 100.935 52.6119 100.935C59.2716 100.935 65.6426 99.6358 71.7248 97.0373C77.8071 94.4389 83.0425 90.9454 87.431 86.5569C91.8194 82.1685 95.3129 76.9331 97.9113 70.8508C100.51 64.7685 101.809 58.3975 101.809 51.7378ZM104.35 51.7378C104.35 58.744 102.983 65.4422 100.25 71.8324C97.5168 78.2227 93.8405 83.7275 89.221 88.347C84.6016 92.9664 79.0967 96.6427 72.7065 99.3759C66.3162 102.109 59.618 103.476 52.6119 103.476C45.6057 103.476 38.9075 102.109 32.5173 99.3759C26.127 96.6427 20.6222 92.9664 16.0027 88.347C11.3833 83.7275 7.70696 78.2227 4.97379 71.8324C2.24061 65.4422 0.874023 58.744 0.874023 51.7378C0.874023 44.7317 2.24061 38.0335 4.97379 31.6432C7.70696 25.253 11.3833 19.7481 16.0027 15.1287C20.6222 10.5092 26.127 6.83294 32.5173 4.09976C38.9075 1.36659 45.6057 0 52.6119 0C59.618 0 66.3162 1.36659 72.7065 4.09976C79.0967 6.83294 84.6016 10.5092 89.221 15.1287C93.8405 19.7481 97.5168 25.253 100.25 31.6432C102.983 38.0335 104.35 44.7317 104.35 51.7378Z" fill="url(#paint0_linear)"></path><defs><linearGradient id="paint0_linear" x1="91.7779" y1="51.2543" x2="52.6119" y2="103.476" gradientUnits="userSpaceOnUse"><stop stop-color="#F8C169"></stop><stop offset="1" stop-color="#FFEAAA"></stop></linearGradient></defs></svg>