<svg width="2.0rem" height="2.5rem" viewBox="0 0 90 104" fill="none" xmlns="http://www.w3.org/2000/svg"><path d="M2.11521 46.3215C2.13546 46.3013 2.15572 46.2609 2.17597 46.2407C2.17597 46.2609 2.17597 46.3013 2.15572 46.3215H2.11521ZM44.8725 19.5229C43.4344 19.5229 41.9153 19.6442 40.538 19.8665L41.2874 33.4881L36.8314 20.5537C33.935 21.3014 31.2209 22.4534 28.7296 23.9085L34.6845 36.3175L25.5497 26.0306C23.2407 27.8293 21.1544 29.8907 19.3518 32.2755L29.6006 41.4509L17.2251 35.4485C15.787 37.9343 14.6122 40.6425 13.8628 43.5325L26.8865 48.1L13.1134 47.2916C12.9311 48.7265 12.8298 50.2423 12.8298 51.7378C12.8298 53.2334 12.9514 54.6885 13.1134 56.1234L26.8257 55.315L13.8628 59.8825C14.6122 62.7725 15.7667 65.4807 17.2251 68.0272L29.6006 62.0248L19.291 71.1395C21.0937 73.5041 23.1596 75.6464 25.5497 77.3844L34.644 67.0975L28.6689 79.5065C31.1602 81.0021 33.8743 82.154 36.7707 82.922L41.2874 69.8663L40.4773 83.6092C41.9153 83.8315 43.4344 83.9527 44.8725 83.9527C46.3713 83.9527 47.8296 83.8315 49.2677 83.6092L48.4575 69.745L53.035 82.9018C55.9314 82.0934 58.6455 81.0021 61.1369 79.4863L55.182 67.0975L64.2763 77.3844C66.6461 75.5857 68.7323 73.5243 70.4742 71.1395L60.2254 62.0248L72.6009 67.9665C74.039 65.4807 75.2137 62.7725 75.9632 59.8219L63.0003 55.315L76.6518 56.1234C76.8746 54.6885 76.9354 53.2334 76.9354 51.7378C76.9354 50.2423 76.8746 48.7265 76.6518 47.2916L62.9395 48.1L75.9024 43.5932C75.153 40.7031 74.0592 37.9343 72.5401 35.4485L60.2051 41.4509L70.4539 32.2755C68.6513 29.9109 66.5853 27.8293 64.2561 26.0306L55.1213 36.3175L61.0761 23.9692C58.5848 22.4736 55.8707 21.3216 52.9743 20.5537L48.4575 33.5488L49.2677 19.8665C47.8296 19.624 46.3713 19.5229 44.8725 19.5229ZM89.3109 25.8689V77.6068L44.8725 103.476L0.434082 77.6068V25.8689L44.8725 0L89.3109 25.8689ZM85.8474 27.9506L44.8725 4.22391L3.8976 27.9506V75.4645L44.8725 99.2518L85.8474 75.4645V27.9506ZM44.8725 7.49794L82.8902 29.6078V73.8477L44.8725 95.9777L6.85476 73.8477V29.628L44.8725 7.49794ZM44.8725 17.7849C26.1776 17.7849 11.0677 32.9627 11.0677 51.7378C11.0677 70.4524 26.1776 85.6302 44.8725 85.6302C63.5066 85.6302 78.6773 70.4524 78.6773 51.7378C78.6773 32.9627 63.5066 17.7849 44.8725 17.7849Z" fill="url(#paint0_linear)"></path><defs><linearGradient id="paint0_linear" x1="102.318" y1="62.8814" x2="5.20988" y2="51.7378" gradientUnits="userSpaceOnUse"><stop stop-color="#EBA73C"></stop><stop offset="1" stop-color="#F9E1A5"></stop></linearGradient></defs></svg>