<svg width="2.3rem" height="2.3rem" viewBox="0 0 105 104" fill="none" xmlns="http://www.w3.org/2000/svg"><path fill-rule="evenodd" clip-rule="evenodd" d="M49.1276 0.171848C33.1295 1.08305 18.1859 9.74159 9.225 23.2923C3.04064 32.644 0.135948 43.4801 0.778708 54.8013C1.38953 65.5636 5.31268 75.7809 12.0698 84.208C16.9526 90.2977 23.9383 95.7221 30.9442 98.8644C38.4905 102.249 45.6177 103.678 53.8193 103.453C62.125 103.224 69.0651 101.422 76.4953 97.5658C89.7372 90.6928 99.6474 77.8073 102.921 63.2065C103.983 58.4739 104.436 51.828 104.005 47.3236C103.007 36.8914 99.3199 27.6539 92.9286 19.5745C91.1898 17.3768 86.9797 13.138 84.8566 11.448C81.46 8.74418 76.2767 5.65581 72.4055 4.02911C69.0577 2.62227 64.4629 1.32239 60.6464 0.702478C58.7143 0.388465 53.0017 -0.0662321 51.9245 0.0080778C51.7261 0.0217855 50.4674 0.0955544 49.1276 0.171848ZM59.323 3.20719C65.2468 4.10666 69.6597 5.50719 74.7608 8.10677C87.5786 14.6385 97.1663 26.9212 100.27 40.7869C101.094 44.466 101.304 46.2842 101.403 50.5702C101.476 53.7264 101.429 55.3132 101.21 57.2043C100.29 65.1236 97.6567 72.3655 93.3451 78.8328C91.2141 82.0291 89.7164 83.8634 87.1142 86.4646C79.5808 93.9942 70.2472 98.6849 59.4132 100.385C56.4704 100.847 48.2867 100.849 45.4284 100.389C34.103 98.5646 24.7835 93.7679 17.0953 85.8057C9.72286 78.1709 5.32621 69.0791 3.71859 58.1455C3.23823 54.8782 3.2801 48.1771 3.80196 44.7985C4.80832 38.2842 6.91868 32.2921 10.0912 26.9425C18.3824 12.9611 32.5221 4.1541 48.8569 2.79704C50.9631 2.62209 57.0369 2.86017 59.323 3.20719ZM42.8414 6.56142C42.727 6.95822 42.6318 7.40462 42.6296 7.55342C42.6202 8.23501 42.3743 8.29724 41.1743 7.92118C40.5366 7.72152 39.9889 7.55702 39.9571 7.55576C39.9254 7.5545 40.3314 7.96014 40.8594 8.45722L41.8194 9.36102L40.8349 10.2634L39.8501 11.1659L40.7446 10.8907C41.2365 10.7394 41.8165 10.5684 42.0336 10.5108C42.4481 10.4006 42.414 10.3299 42.9095 12.3331C43.0316 12.8271 43.0668 12.7683 43.3137 11.6567C43.4622 10.987 43.6466 10.4392 43.7231 10.4392C43.7998 10.4392 44.3771 10.5983 45.0063 10.7928L46.1502 11.1463L45.2035 10.2394L44.2567 9.33271L45.2035 8.4473L46.1502 7.56171L45.2479 7.83009C43.4396 8.36794 43.6197 8.439 43.3195 7.07004L43.0495 5.83996L42.8414 6.56142ZM61.0732 6.56142C60.9652 6.95822 60.823 7.50544 60.7574 7.77743C60.6269 8.3178 60.4889 8.31924 58.9844 7.79655C58.5999 7.66272 58.2491 7.55342 58.2051 7.55342C58.1609 7.55342 58.5568 7.95996 59.0848 8.45668L60.0448 9.35994L59.0523 10.2558L58.0598 11.1515L59.3024 10.7794C60.7034 10.3601 60.7529 10.3848 60.9362 11.5963C61.1273 12.8588 61.316 12.8639 61.5647 11.6132C61.6932 10.9675 61.8633 10.4392 61.9429 10.4392C62.0227 10.4392 62.6025 10.5969 63.2317 10.7897L64.3756 11.14L63.3966 10.2311L62.4177 9.32206L63.3966 8.42403C63.9351 7.93002 64.2538 7.56081 64.1049 7.60356C63.956 7.6463 63.4026 7.82306 62.8751 7.99639C62.3477 8.16972 61.8897 8.28299 61.8576 8.24818C61.8253 8.21319 61.6798 7.65713 61.5342 7.01233L61.2697 5.83996L61.0732 6.56142ZM27.4827 13.9112C27.3468 14.6298 27.1613 15.1287 27.0303 15.1287C26.9083 15.1287 26.3291 14.9638 25.7432 14.7624L24.678 14.3961L25.6307 15.3603L26.5835 16.3247L25.6647 17.099C25.1594 17.5248 24.7779 17.9052 24.8171 17.9444C24.8562 17.9835 25.3608 17.8529 25.9384 17.6543C26.5162 17.4556 27.0424 17.2931 27.1079 17.2931C27.1734 17.2931 27.334 17.8314 27.465 18.4896C27.7158 19.7509 27.8827 19.7435 28.0939 18.4618C28.2873 17.2864 28.3377 17.2599 29.6327 17.652L30.7845 18.0004L29.896 17.0903L29.0075 16.18L29.9788 15.3029L30.9502 14.4258L29.7984 14.7759C29.1648 14.9684 28.5888 15.1265 28.5183 15.1273C28.4475 15.1282 28.3012 14.7838 28.1927 14.3622C27.7422 12.6099 27.7304 12.6025 27.4827 13.9112ZM48.7077 16.8537L44.9859 20.9471L45.3392 21.4429C45.8079 22.1008 46.7272 24.416 46.971 25.5528C47.0784 26.0528 47.1407 26.7681 47.1093 27.1422L47.0524 27.8225L46.2514 26.5813C45.4085 25.2751 43.4844 23.2451 43.0892 23.2451C42.868 23.2451 39.015 27.3386 39.0293 27.5586C39.0331 27.6165 39.403 27.9481 39.8514 28.2953C41.1176 29.2755 43.732 32.0421 44.9729 33.7148C47.2599 36.798 48.3899 39.7729 48.5397 43.1049C48.6499 45.5613 48.3717 47.1306 47.376 49.6684C45.9775 53.2325 43.7316 56.1077 41.4585 57.2436C40.4608 57.7424 40.2264 57.7847 38.4717 57.7847C36.6349 57.7847 36.5192 57.7607 35.1974 57.1078C30.5133 54.7939 27.7467 48.8302 28.0646 41.7324C28.3041 36.3882 30.3773 30.4463 33.5685 25.9574C35.7655 22.867 39.6024 19.3371 43.263 17.0384C43.8585 16.6645 44.1705 16.4096 43.9561 16.472C43.7419 16.5345 42.9865 16.7462 42.2775 16.9424C41.5687 17.1389 40.2417 17.5932 39.3288 17.9521C27.7277 22.5128 19.5245 32.3273 16.8901 44.7985C16.4278 46.9874 16.3943 47.443 16.3865 51.6524C16.3791 55.5796 16.4294 56.4291 16.7766 58.2356C19.6297 73.0868 30.598 84.2748 45.3381 87.3698C48.4597 88.0253 53.999 88.1926 57.2817 87.7309C73.0871 85.5074 85.3652 73.5837 88.1178 57.7847C88.6074 54.9747 88.7014 49.6514 88.3107 46.8727C86.5299 34.2092 78.189 23.2938 66.5409 18.3839C64.1534 17.3775 60.1088 16.114 60.9234 16.629C62.6705 17.7337 64.4006 18.9428 65.4019 19.759C68.1192 21.9737 70.936 25.1988 72.6519 28.0601C75.5367 32.8704 77.2015 39.6241 76.7297 44.6025C76.2466 49.6967 74.2826 53.8532 71.2896 56.114C69.5655 57.4166 68.5261 57.7669 66.3578 57.7766C64.6753 57.7842 64.4681 57.7442 63.3582 57.1986C61.1863 56.1308 58.9124 53.3124 57.6201 50.0861C56.5204 47.341 56.2562 46.0719 56.2761 43.6262C56.2977 40.9328 56.7655 39.116 58.1033 36.5267C59.4211 33.9765 61.8307 31.0079 64.3205 28.8675L65.8895 27.5188L63.9641 25.4271C62.9051 24.2766 61.9444 23.3107 61.8289 23.2808C61.4635 23.1861 59.5348 25.1414 58.6914 26.4619C58.2448 27.1609 57.8126 27.7377 57.731 27.7435C57.5031 27.7598 57.7745 25.8232 58.1917 24.4562C58.3971 23.7833 58.8377 22.6912 59.1709 22.0294L59.7764 20.8262L59.0851 20.0966C58.5568 19.5391 54.0917 14.6201 52.6415 12.9975C52.472 12.808 51.6793 13.585 48.7077 16.8537ZM76.2085 13.9112C76.0705 14.6273 75.8823 15.1287 75.7516 15.1287C75.6296 15.1287 75.0504 14.9638 74.4645 14.7624L73.3993 14.3961L74.3308 15.3486L75.2621 16.3011L74.367 17.0896C73.8748 17.5232 73.503 17.909 73.5408 17.9469C73.5787 17.9846 74.0789 17.854 74.6527 17.6567C75.2265 17.4594 75.7561 17.3351 75.8294 17.3804C75.9028 17.4258 76.0685 17.96 76.1975 18.5675C76.446 19.7377 76.6097 19.7098 76.8152 18.4618C77.0086 17.2864 77.059 17.2599 78.3541 17.652L79.5059 18.0004L78.6173 17.0903L77.7288 16.18L78.7002 15.3029L79.6715 14.4258L78.5197 14.7768C77.2134 15.1747 76.9226 15.1337 76.9029 14.5481C76.8953 14.3219 76.7888 13.812 76.6663 13.4152L76.4435 12.6938L76.2085 13.9112ZM15.2172 26.1309C15.0929 26.6765 14.9537 27.26 14.9081 27.4273C14.8204 27.7491 14.9041 27.761 12.8573 27.1321C12.4843 27.0176 12.5613 27.1532 13.3024 27.9158L14.1987 28.8381L13.3024 29.6408C12.2934 30.5444 12.3654 30.6093 13.8205 30.109L14.8404 29.7582L14.9481 30.2443C15.0075 30.5116 15.1519 31.0925 15.2692 31.5355L15.4823 32.341L15.7232 31.1297C15.9929 29.7739 16.0684 29.7306 17.3685 30.1891C18.5075 30.5907 18.5208 30.5392 17.521 29.6043L16.6063 28.7491L17.5739 27.8838C18.4734 27.0792 18.5033 27.0271 18.0001 27.1433C17.7023 27.2118 17.1507 27.375 16.7743 27.5058C15.9929 27.7772 16.0512 27.8461 15.6863 26.2211L15.4433 25.1389L15.2172 26.1309ZM88.7772 25.5898C88.7205 25.7386 88.5785 26.2865 88.4616 26.8073C88.3446 27.328 88.2293 27.7542 88.2052 27.7542C88.181 27.7542 87.6891 27.5918 87.1122 27.3934C86.5353 27.195 86.0181 27.0327 85.9629 27.0327C85.9077 27.0327 86.2534 27.4293 86.7311 27.9141L87.5996 28.7954L86.7657 29.5638C86.3072 29.9863 85.9589 30.359 85.9919 30.392C86.0248 30.425 86.521 30.3186 87.0943 30.1555C88.2936 29.8145 88.3616 29.8594 88.5502 31.1165C88.7214 32.2578 88.9334 32.2173 89.1736 30.9973C89.4086 29.8035 89.4322 29.7914 90.7376 30.1871C91.2248 30.3348 91.6609 30.4566 91.7068 30.4576C91.7528 30.4587 91.4043 30.0681 90.9326 29.5894L90.075 28.7189L90.9769 27.8759C91.4727 27.4122 91.8136 27.0327 91.7342 27.0327C91.6546 27.0327 91.1266 27.192 90.5607 27.3866C89.3958 27.7872 89.4806 27.8525 89.1045 26.2656C88.9766 25.7254 88.836 25.4354 88.7772 25.5898ZM94.4299 42.7548C94.0726 44.271 94.1037 44.2517 92.7084 43.8332L91.4888 43.4675L92.4583 44.3431L93.4279 45.2186L92.5394 46.1289L91.6508 47.039L92.8026 46.6906C94.0977 46.2984 94.1481 46.325 94.3415 47.5004C94.5526 48.7821 94.7195 48.7895 94.9704 47.5282C95.1014 46.87 95.262 46.3316 95.3275 46.3316C95.393 46.3316 95.9192 46.4941 96.497 46.6929C97.0746 46.8915 97.5791 47.0221 97.6183 46.9829C97.6574 46.9438 97.2762 46.5636 96.7709 46.1377L95.8524 45.3636L96.7086 44.495C97.6307 43.5593 97.59 43.479 96.4053 43.8967C95.9834 44.0455 95.5388 44.1673 95.4172 44.1673C95.2908 44.1673 95.0841 43.6467 94.9336 42.9498L94.6708 41.7324L94.4299 42.7548ZM9.27733 43.0851C9.15426 43.6803 8.98284 44.1673 8.8964 44.1673C8.80979 44.1673 8.22441 44.01 7.59518 43.8179L6.45131 43.4684L7.44379 44.3657L8.43626 45.263L7.47627 46.1581C6.94827 46.6503 6.55236 47.0531 6.59657 47.0531C6.6406 47.0531 6.9914 46.9438 7.37594 46.81C9.057 46.2258 9.01676 46.214 9.2638 47.3685C9.38596 47.939 9.53898 48.4679 9.60413 48.5436C9.66927 48.6194 9.82752 48.1526 9.956 47.5065C10.0845 46.8603 10.2494 46.3316 10.3223 46.3316C10.3952 46.3316 10.927 46.494 11.5039 46.6924C12.0808 46.8908 12.5962 47.0531 12.6492 47.0531C12.7023 47.0531 12.3055 46.6592 11.7677 46.1776L10.7897 45.3021L11.7784 44.3844L12.767 43.4666L11.6232 43.8168C10.9939 44.0096 10.4095 44.1673 10.3239 44.1673C10.2386 44.1673 10.0728 43.6803 9.95564 43.0851C9.83853 42.4899 9.68822 42.0029 9.62181 42.0029C9.55541 42.0029 9.40022 42.4899 9.27733 43.0851ZM11.1796 61.1215C11.1253 61.2703 10.9846 61.8207 10.8669 62.3449C10.6747 63.2011 10.6137 63.2851 10.2664 63.1727C10.0538 63.104 9.51571 62.9372 9.07054 62.8019L8.26122 62.5561L9.16004 63.4682L10.0589 64.3803L9.06711 65.2666L8.07536 66.1529L9.30314 65.7617C10.7034 65.3153 10.7617 65.3465 10.957 66.6482C11.1282 67.7895 11.3402 67.7489 11.5804 66.529C11.7089 65.8764 11.885 65.4502 12.0261 65.4502C12.1544 65.4502 12.7391 65.6123 13.3252 65.8104L14.3911 66.1706L13.4165 65.2305L12.4417 64.2903L13.4057 63.4274C13.9358 62.9527 14.3339 62.5649 14.29 62.5658C14.2464 62.5665 13.687 62.7263 13.0471 62.9208C12.407 63.1152 11.8679 63.2566 11.8489 63.235C11.83 63.2133 11.6939 62.6681 11.5465 62.0233C11.3991 61.3785 11.2339 60.9727 11.1796 61.1215ZM92.8458 61.5724C92.7391 61.9692 92.6005 62.5216 92.5377 62.8001C92.4417 63.2254 92.3595 63.2857 92.0235 63.1771C91.8035 63.106 91.2593 62.9372 90.8141 62.8019L90.0048 62.5561L90.9043 63.4738L91.8039 64.3915L90.8114 65.2743L89.8189 66.1574L91.0467 65.7639C92.4607 65.3106 92.4401 65.2976 92.8005 66.8626L93.036 67.8851L93.3021 66.6677C93.4512 65.9861 93.6639 65.4502 93.7857 65.4502C93.9052 65.4502 94.4823 65.6151 95.0682 65.8165L96.1334 66.1828L95.1745 65.2123L94.2154 64.2418L95.1371 63.4703C95.6442 63.0461 96.0318 62.6721 95.9988 62.639C95.9657 62.606 95.4226 62.7395 94.7919 62.9357C94.1611 63.132 93.6264 63.2707 93.6035 63.244C93.5806 63.2175 93.4441 62.6681 93.3005 62.0233L93.0394 60.8509L92.8458 61.5724ZM19.9006 77.6857C19.7688 78.3145 19.5696 78.8639 19.4579 78.9068C19.346 78.9497 18.8505 78.8622 18.3566 78.7125C17.07 78.3224 17.0437 78.3541 17.9746 79.1732C18.4353 79.5785 18.8121 79.9942 18.8121 80.0974C18.8121 80.2004 18.4431 80.6094 17.9923 81.006C17.5414 81.4028 17.2032 81.7582 17.2407 81.7958C17.2785 81.8334 17.7826 81.7015 18.361 81.5026C18.9393 81.3036 19.4595 81.1878 19.5169 81.245C19.5741 81.3024 19.7477 81.8911 19.9027 82.5532L20.1844 83.7571L20.4213 82.5375C20.5516 81.8666 20.7205 81.2793 20.7967 81.2322C20.8728 81.1851 21.4041 81.308 21.977 81.5049C22.5501 81.7021 23.0671 81.8599 23.1261 81.8555C23.1849 81.8512 22.8016 81.4613 22.2744 80.9889L21.3156 80.1302L22.2215 79.2834C23.2264 78.3439 23.2163 78.322 21.9535 78.705C21.4663 78.8527 20.9842 78.9744 20.8822 78.9755C20.7803 78.9766 20.5715 78.4295 20.4185 77.76L20.14 76.5426L19.9006 77.6857ZM83.8029 77.8953C83.6674 78.5506 83.4864 78.9775 83.3438 78.9775C83.2145 78.9775 82.6293 78.8126 82.0433 78.6112L80.9782 78.2448L81.9367 79.215L82.8954 80.1852L81.9618 81.0243C81.4482 81.4858 81.0572 81.8628 81.0927 81.8619C81.1283 81.8611 81.6852 81.6995 82.3303 81.5026C82.9754 81.3056 83.5147 81.144 83.5286 81.1433C83.5427 81.1424 83.6584 81.6654 83.7856 82.3056C83.913 82.9455 84.0732 83.4345 84.1418 83.3921C84.2104 83.3497 84.3628 82.8261 84.4803 82.2284C84.598 81.6308 84.7181 81.1418 84.7472 81.1418C84.7763 81.1418 85.2721 81.3042 85.849 81.5026C86.4259 81.701 86.9604 81.8633 87.0367 81.8633C87.1131 81.8633 86.7587 81.4658 86.2491 80.9799L85.3225 80.0965L86.2173 79.2735C87.1816 78.3868 87.1324 78.2861 85.9392 78.7069C84.7714 79.1189 84.7127 79.0866 84.4666 77.8953C84.3437 77.3001 84.1943 76.8131 84.1348 76.8131C84.0752 76.8131 83.9258 77.3001 83.8029 77.8953ZM70.0711 88.176C69.9361 88.8208 69.795 89.4049 69.7576 89.4738C69.7203 89.5427 69.3467 89.4947 68.9274 89.3673C67.174 88.8344 67.2025 88.8232 68.1199 89.6844C68.5912 90.127 68.977 90.5706 68.977 90.6699C68.977 90.7695 68.6002 91.1823 68.1395 91.5876C67.2268 92.3908 67.2732 92.4638 68.4357 92.0539C69.6744 91.617 69.8215 91.6713 69.9637 92.6188C70.2046 94.2251 70.3457 94.3073 70.607 92.9936C70.8759 91.6419 70.9443 91.6022 72.2251 92.0539C73.3876 92.4638 73.4339 92.3908 72.5212 91.5876C72.0605 91.1823 71.6838 90.7666 71.6838 90.6634C71.6838 90.5604 72.0528 90.1514 72.5035 89.7548C72.9545 89.358 73.2921 89.0019 73.2535 88.9635C73.215 88.9251 72.8543 89.0097 72.4519 89.1516C70.9538 89.6801 70.9383 89.6725 70.6108 88.2662L70.3168 87.0037L70.0711 88.176ZM33.6207 88.4552C33.4935 89.0953 33.3677 89.6189 33.3413 89.6189C33.315 89.6189 32.9786 89.5096 32.5941 89.3758C32.2094 89.2422 31.6568 89.0746 31.3661 89.0035C30.8825 88.8854 30.9181 88.9469 31.7837 89.7246L32.7298 90.5751L31.868 91.4496C31.3939 91.9309 31.0435 92.3235 31.0895 92.3224C31.1353 92.3213 31.5715 92.1996 32.0587 92.0519C33.3641 91.6562 33.3877 91.6682 33.6227 92.8621C33.7394 93.4553 33.8922 93.9055 33.9621 93.8624C34.0319 93.8191 34.19 93.3337 34.3131 92.7836C34.5592 91.6845 34.6287 91.6498 35.7743 92.0539C36.9655 92.4739 37.0169 92.3742 36.0616 91.4956L35.176 90.6811L36.0589 89.7852L36.9418 88.8892L36.1325 89.135C35.6874 89.2703 35.1453 89.4384 34.928 89.5086C34.5641 89.6263 34.5157 89.5499 34.3172 88.5411C34.1986 87.9387 34.0454 87.4111 33.9769 87.3687C33.9083 87.3263 33.7481 87.8153 33.6207 88.4552ZM51.8258 92.9557C51.5276 94.3613 51.5739 94.3373 50.0298 93.8865L49.0374 93.5969L49.9683 94.4671L50.8994 95.3374L49.9683 96.2702L49.0374 97.2032L50.1116 96.8351C50.7022 96.6327 51.2681 96.4946 51.3688 96.5281C51.4695 96.5617 51.6846 97.1107 51.8466 97.7483L52.1414 98.9077L52.3755 97.7645C52.504 97.1358 52.7012 96.5862 52.8134 96.5431C52.9259 96.5 53.5022 96.6315 54.0945 96.8351L55.1714 97.2054L54.2399 96.2529L53.3086 95.3004L54.2036 94.5119C54.6959 94.0783 55.0676 93.6925 55.0299 93.6546C54.992 93.6169 54.4878 93.7487 53.9095 93.9477C53.3312 94.1466 52.8109 94.2624 52.7535 94.2052C52.6963 94.1479 52.5244 93.5592 52.3715 92.8971L52.0936 91.6931L51.8258 92.9557Z" fill="url(#paint0_linear)"></path><defs><linearGradient id="paint0_linear" x1="9.3866" y1="30.434" x2="52.429" y2="103.476" gradientUnits="userSpaceOnUse"><stop stop-color="#FFC64B"></stop><stop offset="1" stop-color="#F9E1A6"></stop></linearGradient></defs></svg>