<?xml version="1.0" standalone="no"?>
<!DOCTYPE svg PUBLIC "-//W3C//DTD SVG 20010904//EN"
 "http://www.w3.org/TR/2001/REC-SVG-20010904/DTD/svg10.dtd">
<svg version="1.0" xmlns="http://www.w3.org/2000/svg"
 width="80.000000pt" height="80.000000pt" viewBox="0 0 80.000000 80.000000"
 preserveAspectRatio="xMidYMid meet">
<metadata>
Created by potrace 1.16, written by Peter Selinger 2001-2019
</metadata>
<g transform="translate(0.000000,80.000000) scale(0.100000,-0.100000)"
fill="#000000" stroke="none">
<path d="M0 425 l0 -375 375 0 375 0 0 375 0 375 -375 0 -375 0 0 -375z m410
155 c13 -134 13 -173 -2 -164 -23 14 18 -39 45 -60 19 -14 52 -21 122 -27 126
-11 165 -23 165 -53 0 -13 -8 -31 -19 -40 -17 -16 -21 -16 -55 5 -25 14 -57
22 -99 24 -34 1 -45 0 -24 -2 28 -3 37 -9 37 -24 0 -16 -7 -19 -39 -19 -48 0
-94 -35 -113 -85 -11 -32 -15 -35 -54 -35 -39 0 -43 3 -49 30 -10 45 -67 90
-115 90 -33 0 -40 3 -40 19 0 15 9 21 38 24 20 2 9 3 -25 2 -44 -2 -73 -9 -99
-26 l-37 -22 -19 23 c-42 51 -2 78 129 87 49 3 102 11 120 19 42 17 93 88 92
128 -1 29 -2 29 -10 -9 -5 -22 -14 -44 -20 -50 -11 -11 -2 175 13 245 5 25 12
58 15 75 6 29 6 29 20 -15 7 -25 18 -88 23 -140z m46 -76 c-8 -29 11 -41 32
-20 15 14 18 14 39 -6 21 -20 22 -23 7 -39 -20 -23 -9 -42 21 -35 18 5 24 1
29 -20 9 -35 0 -44 -44 -44 -31 0 -42 5 -51 23 -6 12 -22 33 -34 47 -16 17
-24 39 -25 70 -2 60 -2 60 16 53 10 -4 14 -13 10 -29z m-132 -21 c-4 -28 -16
-58 -29 -73 -12 -14 -28 -35 -34 -47 -9 -18 -20 -23 -51 -23 -45 0 -54 9 -41
43 8 19 15 23 35 20 30 -6 36 16 11 37 -14 12 -13 16 6 36 21 22 24 23 40 8
23 -21 42 -9 35 22 -5 20 -3 24 14 24 20 0 21 -4 14 -47z"/>
</g>
</svg>
