<?xml version="1.0" standalone="no"?>
<!DOCTYPE svg PUBLIC "-//W3C//DTD SVG 20010904//EN"
 "http://www.w3.org/TR/2001/REC-SVG-20010904/DTD/svg10.dtd">
<svg version="1.0" xmlns="http://www.w3.org/2000/svg"
 width="75.000000pt" height="75.000000pt" viewBox="0 0 75.000000 75.000000"
 preserveAspectRatio="xMidYMid meet">
<metadata>
Created by potrace 1.16, written by Peter Selinger 2001-2019
</metadata>
<g transform="translate(0.000000,75.000000) scale(0.100000,-0.100000)"
fill="#000000" stroke="none">
<path d="M370 400 c0 -29 -51 -90 -90 -110 -29 -15 -60 -20 -117 -21 -103 -1
-117 -7 -119 -52 -1 -21 0 -37 4 -37 3 0 26 10 51 22 63 31 153 31 201 1 79
-50 91 -50 153 -1 42 34 147 32 210 -5 45 -27 46 -27 57 -8 5 11 10 29 10 40
0 26 -51 41 -143 41 -37 0 -83 6 -101 14 -39 16 -83 59 -102 101 -7 17 -13 23
-14 15z"/>
<path d="M180 186 c0 -9 8 -12 24 -9 45 9 126 -54 126 -97 0 -20 34 -32 65
-24 11 3 27 23 37 44 19 46 71 82 112 78 17 -2 31 2 33 10 7 19 -91 16 -108
-4 -19 -23 -64 -44 -94 -44 -30 0 -75 21 -94 44 -17 21 -101 22 -101 2z"/>
</g>
</svg>
