<?xml version="1.0" encoding="UTF-8" standalone="no"?>
<!DOCTYPE svg PUBLIC "-//W3C//DTD SVG 1.1//EN"
	"http://www.w3.org/Graphics/SVG/1.1/DTD/svg11.dtd">
<svg xmlns="http://www.w3.org/2000/svg" version="1.1" width="245" height="245" id="svg2998">
<g transform="translate(-361.14288,-369.36218)" id="layer1" style="display:inline">
<path d="M 0,0 0,122.5 C 0,54.845118 54.845118,0 122.5,0 L 0,0 z M 122.5,0 C 190.15488,0 245,54.845118 245,122.5 L 245,0 122.5,0 z M 245,122.5 C 245,190.15488 190.15488,245 122.5,245 l 122.5,0 0,-122.5 z M 122.5,245 C 54.845118,245 0,190.15488 0,122.5 L 0,245 122.5,245 z M 110,15 l 0,9.46875 C 91.73786,26.772788 75.032367,34.039665 61.28125,44.90625 L 54.6875,38.3125 37,56 43.78125,62.78125 C 33.618424,76.155617 26.766699,92.18016 24.5,109.65625 l -10.5,0 0,25.6875 10.5,0 c 2.287032,17.63286 9.217078,33.80407 19.53125,47.25 L 36.8125,189.8125 54.5,207.5 61.65625,200.34375 C 75.339803,211.05655 91.8941,218.24692 110,220.53125 l 0,9.46875 25,0 0,-9.46875 c 18.1059,-2.28433 34.6602,-9.4747 48.34375,-20.1875 L 190.5,207.5 l 17.6875,-17.6875 -7.21875,-7.21875 C 211.1548,169.31485 218.03377,153.37783 220.40625,136 L 232,136 l 0,-25 -11.34375,0 C 218.58143,93.10052 211.7049,76.671347 201.375,63 L 208.6875,55.6875 191,38 183.90625,45.09375 C 170.11606,34.136718 153.35364,26.784332 135,24.46875 L 135,15 110,15 z m 0,41 25,0 0,26.6875 c 2.77302,0.86979 5.41609,2.00657 7.90625,3.40625 L 162.75,66.875 l 17.6875,17.6875 -20.375,19.75 c 1.03256,2.12991 1.8692,4.3743 2.53125,6.6875 L 191,111 l 0,25 -29.03125,0 c -0.62988,1.84178 -1.37979,3.62828 -2.25,5.34375 L 179.8125,160.9375 162.125,178.625 142.25,159.25 c -2.29932,1.23899 -4.7171,2.26803 -7.25,3.0625 l 0,26.6875 -25,0 0,-26.6875 c -2.5329,-0.79447 -4.95068,-1.82351 -7.25,-3.0625 l -20.125,19.5 -17.6875,-17.6875 20.34375,-19.71875 c -0.9733,-1.9187 -1.79759,-3.92479 -2.46875,-6 l -27.8125,0 0,-25.6875 27.8125,0 c 0.62263,-1.92518 1.36644,-3.80238 2.25,-5.59375 L 65.125,84.75 82.8125,67.0625 102.34375,85.96875 c 2.41896,-1.3384 4.97357,-2.4398 7.65625,-3.28125 L 110,56 z" transform="translate(361.14288,369.36218)" id="rect3941" style="fill:#000000;fill-opacity:1;stroke:none" />
</g>
</svg>
